<svg width="48" height="48" viewBox="0 0 48 48" fill="none" xmlns="http://www.w3.org/2000/svg">
<rect width="48" height="48" rx="24" fill="#FFA163"/>
<path d="M26.6602 25.3203V32H24.4102V14.9375H30.7031C32.5703 14.9375 34.0312 15.4141 35.0859 16.3672C36.1484 17.3203 36.6797 18.582 36.6797 20.1523C36.6797 21.8086 36.1602 23.0859 35.1211 23.9844C34.0898 24.875 32.6094 25.3203 30.6797 25.3203H26.6602ZM26.6602 23.4805H30.7031C31.9062 23.4805 32.8281 23.1992 33.4688 22.6367C34.1094 22.0664 34.4297 21.2461 34.4297 20.1758C34.4297 19.1602 34.1094 18.3477 33.4688 17.7383C32.8281 17.1289 31.9492 16.8125 30.832 16.7891H26.6602V23.4805Z" fill="white"/>
<path d="M22.3008 24.3359H24.375V32H26.625V14.9375H24.375V22.4609H22.6172L16.6523 14.9375H13.8516L20.3672 23.2109L13.3711 32H16.125L22.3008 24.3359Z" fill="white"/>
</svg>
